HIERARCHY
ROOT Hips
{
	OFFSET 0.000000 0.000000 0.000000
	CHANNELS 6 Xposition Yposition Zposition Zrotation Yrotation Xrotation 
	JOINT LHipJoint
	{
		OFFSET 0.000000 0.000000 0.000000
		CHANNELS 3 Zrotation Yrotation Xrotation
		JOINT LeftUpLeg
		{
			OFFSET 1.363060 -1.794630 0.839290
			CHANNELS 3 Zrotation Yrotation Xrotation
			JOINT LeftLeg
			{
				OFFSET 2.448110 -6.726130 0.000000
				CHANNELS 3 Zrotation Yrotation Xrotation
				JOINT LeftFoot
				{
					OFFSET 2.562200 -7.039590 0.000000
					CHANNELS 3 Zrotation Yrotation Xrotation
					JOINT LeftToeBase
					{
						OFFSET 0.157640 -0.433110 2.322550
						CHANNELS 3 Zrotation Yrotation Xrotation
						End Site
						{
							OFFSET 0.000000 0.000000 0.000000
						}
					}
				}
			}
		}
	}
	JOINT RHipJoint
	{
		OFFSET 0.000000 0.000000 0.000000
		CHANNELS 3 Zrotation Yrotation Xrotation
		JOINT RightUpLeg
		{
			OFFSET -1.305520 -1.794630 0.839290
			CHANNELS 3 Zrotation Yrotation Xrotation
			JOINT RightLeg
			{
				OFFSET -2.542530 -6.985550 0.000000
				CHANNELS 3 Zrotation Yrotation Xrotation
				JOINT RightFoot
				{
					OFFSET -2.568260 -7.056230 0.000000
					CHANNELS 3 Zrotation Yrotation Xrotation
					JOINT RightToeBase
					{
						OFFSET -0.164730 -0.452590 2.363150
						CHANNELS 3 Zrotation Yrotation Xrotation
						End Site
						{
							OFFSET 0.000000 0.000000 0.000000
						}
					}
				}
			}
		}
	}
	JOINT LowerBack
	{
		OFFSET 0.000000 0.000000 0.000000
		CHANNELS 3 Zrotation Yrotation Xrotation
		JOINT Spine
		{
			OFFSET 0.028270 2.035590 -0.193380
			CHANNELS 3 Zrotation Yrotation Xrotation
			JOINT Spine1
			{
				OFFSET 0.056720 2.048850 -0.042750
				CHANNELS 3 Zrotation Yrotation Xrotation
				JOINT Neck
				{
					OFFSET 0.000000 0.000000 0.000000
					CHANNELS 3 Zrotation Yrotation Xrotation
					JOINT Neck1
					{
						OFFSET -0.054170 1.746240 0.172020
						CHANNELS 3 Zrotation Yrotation Xrotation
						JOINT Head
						{
							OFFSET 0.104070 1.761360 -0.123970
							CHANNELS 3 Zrotation Yrotation Xrotation
							End Site
							{
								OFFSET 0.000000 0.000000 0.000000
							}
						}
					}
				}
				JOINT LeftShoulder
				{
					OFFSET 0.000000 0.000000 0.000000
					CHANNELS 3 Zrotation Yrotation Xrotation
					JOINT LeftArm
					{
						OFFSET 3.362410 1.200890 -0.311210
						CHANNELS 3 Zrotation Yrotation Xrotation
						JOINT LeftForeArm
						{
							OFFSET 4.983000 -0.000000 -0.000000
							CHANNELS 3 Zrotation Yrotation Xrotation
							JOINT LeftHand
							{
								OFFSET 3.483560 -0.000000 -0.000000
								CHANNELS 3 Zrotation Yrotation Xrotation
								JOINT LeftFingerBase
								{
									OFFSET 0.000000 0.000000 0.000000
									CHANNELS 3 Zrotation Yrotation Xrotation
									JOINT LeftHandIndex1
									{
										OFFSET 0.715260 -0.000000 -0.000000
										CHANNELS 3 Zrotation Yrotation Xrotation
										End Site
										{
											OFFSET 0.000000 0.000000 0.000000
										}
									}
								}
								JOINT LThumb
								{
									OFFSET 0.000000 0.000000 0.000000
									CHANNELS 3 Zrotation Yrotation Xrotation
									End Site
									{
										OFFSET 0.000000 0.000000 0.000000
									}
								}
							}
						}
					}
				}
				JOINT RightShoulder
				{
					OFFSET 0.000000 0.000000 0.000000
					CHANNELS 3 Zrotation Yrotation Xrotation
					JOINT RightArm
					{
						OFFSET -3.136600 1.374050 -0.404650
						CHANNELS 3 Zrotation Yrotation Xrotation
						JOINT RightForeArm
						{
							OFFSET -5.241900 -0.000000 -0.000000
							CHANNELS 3 Zrotation Yrotation Xrotation
							JOINT RightHand
							{
								OFFSET -3.444170 -0.000000 -0.000000
								CHANNELS 3 Zrotation Yrotation Xrotation
								JOINT RightFingerBase
								{
									OFFSET 0.000000 0.000000 0.000000
									CHANNELS 3 Zrotation Yrotation Xrotation
									JOINT RightHandIndex1
									{
										OFFSET -0.622530 -0.000000 -0.000000
										CHANNELS 3 Zrotation Yrotation Xrotation
										End Site
										{
											OFFSET 0.000000 0.000000 0.000000
										}
									}
								}
								JOINT RThumb
								{
									OFFSET 0.000000 0.000000 0.000000
									CHANNELS 3 Zrotation Yrotation Xrotation
									End Site
									{
										OFFSET 0.000000 0.000000 0.000000
									}
								}
							}
						}
					}
				}
			}
		}
	}
}
MOTION
Frames: 8
Frame Time: 0.008333
11.322811 18.044822 2.544469 44.151916 -87.919053 0.945852 -10.451346 0.204274 1.316952 -9.664264 5.048129 -57.936292 -0.954969 2.366452 41.197336 2.297483 13.304914 21.374803 6.657499 0.000000 -58.993000 10.404888 0.249211 -0.231408 10.468202 -11.179084 -57.581323 1.622184 -3.962942 43.064803 -0.301947 -0.561681 18.151602 -0.569100 -0.000000 -82.217100 0.313876 -1.617031 0.300009 -0.199849 -1.646756 -2.993097 -3.202088 -1.682755 -1.525035 3.156434 -3.745827 -1.177032 -1.278163 -0.174387 1.468726 0.000000 0.000000 0.000000 11.589586 -5.969131 0.126750 -52.262331 -40.167692 -1.838188 -0.076474 -80.884218 -0.135875 12.641996 -5.563734 -0.704619 -0.174907 0.711074 -0.000000 0.000000 0.000000 0.000000 0.000000 0.000000 0.000000 0.123734 -0.051157 1.160926 53.653757 50.920875 7.423336 -0.078021 62.981318 -0.130464 -17.322180 11.463369 -1.866208 0.211038 -0.593819 -0.000000 0.000000 0.000000 0.000000 0.000000 0.000000 0.000000 
11.215518 18.162828 2.535723 44.033689 -87.951177 1.486429 -10.373033 0.131771 1.344815 -9.974871 4.959807 -59.385318 -0.978164 2.469465 41.745085 2.396882 13.985843 20.995222 6.990499 0.000000 -57.349000 10.335003 0.332282 -0.134757 10.680349 -10.994743 -59.230753 1.653951 -4.113958 43.757867 -0.332724 -0.938262 17.380876 -0.763500 0.000000 -81.702900 0.341767 -1.631789 0.213710 -0.134950 -1.659614 -3.031672 -2.959174 -1.695085 -1.600870 2.793655 -3.820663 -1.081791 -1.094712 -0.164323 1.495057 0.000000 0.000000 0.000000 12.248061 -5.581167 -0.084008 -51.554536 -41.077651 -3.192854 -0.078288 -83.551892 -0.138846 12.441796 -5.392946 -0.676190 -0.165434 0.728759 -0.000000 0.000000 0.000000 0.000000 0.000000 0.000000 0.000000 -1.165283 -0.086288 0.983077 51.914810 51.585354 5.629362 -0.116718 65.738671 -0.138078 -17.451629 11.236641 -1.847830 0.212612 -0.613134 -0.000000 0.000000 0.000000 0.000000 0.000000 0.000000 0.000000 
11.111616 18.267031 2.526593 44.273577 -87.946416 1.784564 -10.281255 0.064875 1.389826 -10.316453 4.713777 -61.021073 -1.010877 2.588314 42.333388 2.480223 14.524466 20.126307 7.161900 -0.000001 -56.225400 10.263063 0.421768 -0.005924 10.846317 -10.704377 -61.069036 1.708246 -4.278583 44.440347 -0.356454 -1.286121 16.118251 -0.939000 0.000000 -81.451399 0.362553 -1.649919 0.096438 -0.068128 -1.675398 -3.080119 -2.705709 -1.711367 -1.676803 2.401309 -3.901526 -0.996183 -0.901862 -0.153434 1.517407 0.000000 0.000000 0.000000 12.934277 -5.138007 -0.291876 -50.800350 -41.932539 -4.668429 -0.105448 -86.236450 -0.142942 12.385902 -5.218153 -0.655472 -0.159207 0.745219 -0.000000 0.000000 0.000000 0.000000 0.000000 0.000000 0.000000 -2.531862 -0.143164 0.782440 50.124520 52.075272 3.553506 -0.139026 68.551438 -0.146183 -17.635676 10.967208 -1.827962 0.215419 -0.631985 -0.000000 0.000000 0.000000 0.000000 0.000000 0.000000 0.000000 
11.011103 18.358416 2.516957 44.868226 -87.903856 1.822736 -10.179126 0.003095 1.446984 -10.674020 4.321241 -62.797669 -1.052951 2.718301 42.915385 2.542894 14.869587 18.917577 7.163500 0.000000 -55.558400 10.191445 0.517671 0.148092 10.950969 -10.331506 -63.055461 1.784669 -4.453471 45.077441 -0.371888 -1.550779 14.512240 -1.064800 -0.000000 -81.192600 0.375694 -1.669788 -0.037600 -0.001231 -1.692372 -3.133924 -2.448357 -1.729687 -1.749157 1.990067 -3.992007 -0.912617 -0.705535 -0.142193 1.537688 0.000000 0.000000 0.000000 13.629369 -4.644787 -0.494868 -49.970663 -42.739032 -6.269400 -0.158840 -88.927767 -0.148451 12.491890 -5.049831 -0.643965 -0.157026 0.760483 -0.000000 0.000000 0.000000 0.000000 0.000000 0.000000 0.000000 -3.937835 -0.230432 0.560723 48.274060 52.398931 1.222967 -0.141525 71.405596 -0.154824 -17.894121 10.664046 -1.809501 0.219953 -0.650023 -0.000000 0.000000 0.000000 0.000000 0.000000 0.000000 0.000000 
10.913641 18.437979 2.506879 45.754567 -87.825991 1.646228 -10.070555 -0.054777 1.511350 -11.032409 3.801036 -64.670056 -1.105104 2.853841 43.442088 2.580355 14.993658 17.534466 7.014001 0.000000 -55.289800 10.121144 0.619233 0.320942 10.985501 -9.898149 -65.148648 1.881244 -4.633093 45.626509 -0.379525 -1.708777 12.745848 -1.132200 -0.000001 -81.001400 0.383372 -1.689421 -0.175434 0.064522 -1.708683 -3.188767 -2.193376 -1.748057 -1.814365 1.569276 -4.091967 -0.823338 -0.511462 -0.131075 1.557886 0.000000 0.000000 0.000000 14.314110 -4.109607 -0.690703 -49.041500 -43.496650 -8.002171 179.762178 -88.385109 179.844526 12.761246 -4.901223 -0.642769 -0.159386 0.774614 -0.000000 0.000000 0.000000 0.000000 0.000000 0.000000 0.000000 -5.347057 -0.351656 0.321059 46.358967 52.565203 -1.331525 -0.121848 74.284555 -0.164013 -18.241304 10.338602 -1.794850 0.226667 -0.666923 -0.000000 0.000000 0.000000 0.000000 0.000000 0.000000 0.000000 
10.818735 18.506749 2.496339 46.881504 -87.718280 1.287703 -9.958964 -0.109764 1.578298 -11.381613 3.176732 -66.596707 -1.168321 2.989201 43.866463 2.588718 14.895272 16.141716 6.753700 0.000000 -55.371299 10.053094 0.724879 0.507884 10.944824 -9.422838 -67.313505 1.994162 -4.812257 46.054978 -0.378825 -1.754174 10.991488 -1.146499 -0.000000 -80.911901 0.386935 -1.706493 -0.307359 0.127539 -1.722154 -3.240577 -1.947352 -1.764181 -1.867469 1.149331 -4.204316 -0.722963 -0.325673 -0.120558 1.579436 0.000000 0.000000 0.000000 14.966224 -3.535986 -0.876720 -47.991669 -44.211494 -9.867146 179.660452 -85.722507 179.836094 13.180206 -4.781358 -0.651782 -0.166441 0.787588 0.000000 0.000000 0.000000 0.000000 0.000000 0.000000 0.000000 -6.720473 -0.512736 0.068229 44.374790 52.590341 -4.070465 -0.079210 77.165057 -0.173723 -18.687792 10.002344 -1.786007 0.235988 -0.682340 -0.000000 0.000000 0.000000 0.000000 0.000000 0.000000 0.000000 
10.725695 18.565569 2.485260 48.236147 -87.587976 0.742455 -9.847340 -0.161946 1.643497 -11.719599 2.476344 -68.540372 -1.244103 3.119493 44.148353 2.564667 14.589929 14.877557 6.429199 -0.000000 -55.660000 9.988789 0.831720 0.705947 10.826404 -8.920368 -69.521124 2.118369 -4.987166 46.349300 -0.367029 -1.687000 9.379419 -1.117499 -0.000000 -80.659200 0.384021 -1.717996 -0.427426 0.185249 -1.729773 -3.286105 -1.716594 -1.774925 -1.903672 0.742295 -4.333149 -0.607398 -0.154056 -0.111106 1.603553 0.000000 0.000000 0.000000 15.568634 -2.929264 -1.051262 -46.809943 -44.888494 -11.857498 179.541016 -83.107777 179.826563 13.721396 -4.696396 -0.670202 -0.177975 0.799339 0.000000 0.000000 0.000000 0.000000 0.000000 0.000000 0.000000 -8.017563 -0.719352 -0.191273 42.318560 52.491957 -6.950423 -0.014767 80.022292 -0.183866 -19.237945 9.664539 -1.783871 0.248260 -0.695924 -0.000000 0.000000 0.000000 0.000000 0.000000 0.000000 0.000000 
10.633765 18.615082 2.473752 49.764256 -87.443420 0.049534 -9.738890 -0.211324 1.703698 -12.044402 1.724952 -70.464986 -1.333088 3.239761 44.251583 2.508288 14.116082 13.858209 6.090000 0.000000 -56.145300 9.928857 0.936668 0.912583 10.633013 -8.401876 -71.740415 2.248731 -5.152163 46.485110 -0.343379 -1.531949 8.033723 -1.064400 -0.000000 -80.491199 0.376714 -1.722085 -0.531506 0.236720 -1.729910 -3.322836 -1.505338 -1.778578 -1.919301 0.355044 -4.479804 -0.475192 -0.000640 -0.103025 1.630747 0.000000 0.000000 0.000000 16.104114 -2.291114 -1.212202 -45.496206 -45.528695 -13.962332 179.411052 -80.567659 179.816401 14.347864 -4.652845 -0.697325 -0.193439 0.809868 0.000000 0.000000 0.000000 0.000000 0.000000 0.000000 0.000000 -9.211763 -0.973268 -0.451642 40.197568 52.287278 -9.924909 0.068129 82.831220 -0.194277 -19.886232 9.331399 -1.788239 0.263615 -0.707368 -0.000000 0.000000 0.000000 0.000000 0.000000 0.000000 0.000000 
